<mxfile host="app.diagrams.net" agent="Mozilla/5.0 (Windows NT 10.0; Win64; x64) AppleWebKit/537.36 (KHTML, like Gecko) Chrome/127.0.0.0 Safari/537.36" version="24.7.7">
  <diagram name="Page-1" id="m8xP8wQ0yb2U8eE9l7lu">
    <mxGraphModel dx="4025" dy="1705" grid="0" gridSize="10" guides="1" tooltips="1" connect="1" arrows="1" fold="1" page="0" pageScale="1" pageWidth="850" pageHeight="1100" math="0" shadow="0">
      <root>
        <mxCell id="0" />
        <mxCell id="1" parent="0" />
        <mxCell id="YFh79z24oVCMz1yjFzVP-1" value="S3 Bucket" style="sketch=0;outlineConnect=0;fontColor=#232F3E;gradientColor=none;fillColor=#7AA116;strokeColor=none;dashed=0;verticalLabelPosition=bottom;verticalAlign=top;align=center;html=1;fontSize=12;fontStyle=0;aspect=fixed;pointerEvents=1;shape=mxgraph.aws4.bucket;" parent="1" vertex="1">
          <mxGeometry x="78" y="-139" width="75" height="78" as="geometry" />
        </mxCell>
        <mxCell id="YFh79z24oVCMz1yjFzVP-13" style="edgeStyle=elbowEdgeStyle;rounded=0;orthogonalLoop=1;jettySize=auto;html=1;flowAnimation=1;entryX=0.167;entryY=0.669;entryDx=0;entryDy=0;entryPerimeter=0;" parent="1" source="YFh79z24oVCMz1yjFzVP-6" target="YFh79z24oVCMz1yjFzVP-7" edge="1">
          <mxGeometry relative="1" as="geometry">
            <mxPoint x="383" y="58" as="targetPoint" />
          </mxGeometry>
        </mxCell>
        <mxCell id="YFh79z24oVCMz1yjFzVP-6" value="AWS RDS" style="sketch=0;points=[[0,0,0],[0.25,0,0],[0.5,0,0],[0.75,0,0],[1,0,0],[0,1,0],[0.25,1,0],[0.5,1,0],[0.75,1,0],[1,1,0],[0,0.25,0],[0,0.5,0],[0,0.75,0],[1,0.25,0],[1,0.5,0],[1,0.75,0]];outlineConnect=0;fontColor=#232F3E;fillColor=#C925D1;strokeColor=#ffffff;dashed=0;verticalLabelPosition=bottom;verticalAlign=top;align=center;html=1;fontSize=12;fontStyle=0;aspect=fixed;shape=mxgraph.aws4.resourceIcon;resIcon=mxgraph.aws4.rds;" parent="1" vertex="1">
          <mxGeometry x="75" y="180" width="78" height="78" as="geometry" />
        </mxCell>
        <mxCell id="YFh79z24oVCMz1yjFzVP-19" style="edgeStyle=elbowEdgeStyle;rounded=0;orthogonalLoop=1;jettySize=auto;html=1;flowAnimation=1;" parent="1" source="YFh79z24oVCMz1yjFzVP-7" target="YFh79z24oVCMz1yjFzVP-18" edge="1">
          <mxGeometry relative="1" as="geometry" />
        </mxCell>
        <mxCell id="YFh79z24oVCMz1yjFzVP-7" value="AWS Glue" style="sketch=0;points=[[0,0,0],[0.25,0,0],[0.5,0,0],[0.75,0,0],[1,0,0],[0,1,0],[0.25,1,0],[0.5,1,0],[0.75,1,0],[1,1,0],[0,0.25,0],[0,0.5,0],[0,0.75,0],[1,0.25,0],[1,0.5,0],[1,0.75,0]];outlineConnect=0;fontColor=#232F3E;fillColor=#8C4FFF;strokeColor=#ffffff;dashed=0;verticalLabelPosition=bottom;verticalAlign=top;align=center;html=1;fontSize=12;fontStyle=0;aspect=fixed;shape=mxgraph.aws4.resourceIcon;resIcon=mxgraph.aws4.glue;" parent="1" vertex="1">
          <mxGeometry x="412" y="11" width="78" height="78" as="geometry" />
        </mxCell>
        <mxCell id="YFh79z24oVCMz1yjFzVP-12" style="edgeStyle=elbowEdgeStyle;rounded=0;orthogonalLoop=1;jettySize=auto;html=1;dashed=1;flowAnimation=1;dashPattern=8 8;" parent="1" source="YFh79z24oVCMz1yjFzVP-1" edge="1">
          <mxGeometry relative="1" as="geometry">
            <mxPoint x="409" y="38" as="targetPoint" />
            <Array as="points">
              <mxPoint x="291" y="-22" />
            </Array>
          </mxGeometry>
        </mxCell>
        <mxCell id="YFh79z24oVCMz1yjFzVP-17" value="" style="whiteSpace=wrap;html=1;fillColor=none;dashed=1;dashPattern=1 2;" parent="1" vertex="1">
          <mxGeometry x="19" y="-182" width="332" height="502" as="geometry" />
        </mxCell>
        <mxCell id="YFh79z24oVCMz1yjFzVP-32" style="edgeStyle=elbowEdgeStyle;rounded=0;orthogonalLoop=1;jettySize=auto;html=1;flowAnimation=1;" parent="1" source="YFh79z24oVCMz1yjFzVP-18" target="YFh79z24oVCMz1yjFzVP-25" edge="1">
          <mxGeometry relative="1" as="geometry" />
        </mxCell>
        <mxCell id="YFh79z24oVCMz1yjFzVP-18" value="" style="sketch=0;outlineConnect=0;fontColor=#232F3E;gradientColor=none;fillColor=#7AA116;strokeColor=none;dashed=0;verticalLabelPosition=bottom;verticalAlign=top;align=center;html=1;fontSize=12;fontStyle=0;aspect=fixed;pointerEvents=1;shape=mxgraph.aws4.bucket_with_objects;" parent="1" vertex="1">
          <mxGeometry x="590" y="11" width="75" height="78" as="geometry" />
        </mxCell>
        <mxCell id="YFh79z24oVCMz1yjFzVP-31" style="edgeStyle=none;rounded=0;orthogonalLoop=1;jettySize=auto;html=1;flowAnimation=1;" parent="1" source="YFh79z24oVCMz1yjFzVP-23" target="YFh79z24oVCMz1yjFzVP-28" edge="1">
          <mxGeometry relative="1" as="geometry" />
        </mxCell>
        <mxCell id="YFh79z24oVCMz1yjFzVP-102" style="edgeStyle=elbowEdgeStyle;rounded=0;orthogonalLoop=1;jettySize=auto;html=1;flowAnimation=1;entryX=0;entryY=0.5;entryDx=0;entryDy=0;entryPerimeter=0;" parent="1" source="YFh79z24oVCMz1yjFzVP-18" target="YFh79z24oVCMz1yjFzVP-23" edge="1">
          <mxGeometry relative="1" as="geometry">
            <mxPoint x="776" y="-92" as="targetPoint" />
            <Array as="points">
              <mxPoint x="628" y="-108" />
            </Array>
          </mxGeometry>
        </mxCell>
        <mxCell id="YFh79z24oVCMz1yjFzVP-23" value="AWS Glue" style="sketch=0;points=[[0,0,0],[0.25,0,0],[0.5,0,0],[0.75,0,0],[1,0,0],[0,1,0],[0.25,1,0],[0.5,1,0],[0.75,1,0],[1,1,0],[0,0.25,0],[0,0.5,0],[0,0.75,0],[1,0.25,0],[1,0.5,0],[1,0.75,0]];outlineConnect=0;fontColor=#232F3E;fillColor=#8C4FFF;strokeColor=#ffffff;dashed=0;verticalLabelPosition=bottom;verticalAlign=top;align=center;html=1;fontSize=12;fontStyle=0;aspect=fixed;shape=mxgraph.aws4.resourceIcon;resIcon=mxgraph.aws4.glue;" parent="1" vertex="1">
          <mxGeometry x="797" y="-147" width="78" height="78" as="geometry" />
        </mxCell>
        <mxCell id="YFh79z24oVCMz1yjFzVP-34" style="edgeStyle=none;rounded=0;orthogonalLoop=1;jettySize=auto;html=1;flowAnimation=1;" parent="1" source="YFh79z24oVCMz1yjFzVP-25" target="YFh79z24oVCMz1yjFzVP-26" edge="1">
          <mxGeometry relative="1" as="geometry" />
        </mxCell>
        <mxCell id="YFh79z24oVCMz1yjFzVP-25" value="AWS Glue Crawler" style="sketch=0;outlineConnect=0;fontColor=#232F3E;gradientColor=none;fillColor=#8C4FFF;strokeColor=none;dashed=0;verticalLabelPosition=bottom;verticalAlign=top;align=center;html=1;fontSize=12;fontStyle=0;aspect=fixed;pointerEvents=1;shape=mxgraph.aws4.glue_crawlers;" parent="1" vertex="1">
          <mxGeometry x="799" y="223" width="78" height="78" as="geometry" />
        </mxCell>
        <mxCell id="YFh79z24oVCMz1yjFzVP-35" style="edgeStyle=none;rounded=0;orthogonalLoop=1;jettySize=auto;html=1;flowAnimation=1;" parent="1" source="YFh79z24oVCMz1yjFzVP-26" target="YFh79z24oVCMz1yjFzVP-23" edge="1">
          <mxGeometry relative="1" as="geometry" />
        </mxCell>
        <mxCell id="YFh79z24oVCMz1yjFzVP-26" value="Glue Data Catalog&amp;nbsp;" style="sketch=0;outlineConnect=0;fontColor=#232F3E;gradientColor=none;fillColor=#8C4FFF;strokeColor=none;dashed=0;verticalLabelPosition=bottom;verticalAlign=top;align=center;html=1;fontSize=12;fontStyle=0;aspect=fixed;pointerEvents=1;shape=mxgraph.aws4.glue_data_catalog;" parent="1" vertex="1">
          <mxGeometry x="802" y="38" width="72" height="78" as="geometry" />
        </mxCell>
        <mxCell id="YFh79z24oVCMz1yjFzVP-37" style="edgeStyle=none;rounded=0;orthogonalLoop=1;jettySize=auto;html=1;flowAnimation=1;" parent="1" source="YFh79z24oVCMz1yjFzVP-28" target="YFh79z24oVCMz1yjFzVP-36" edge="1">
          <mxGeometry relative="1" as="geometry" />
        </mxCell>
        <mxCell id="YFh79z24oVCMz1yjFzVP-28" value="" style="sketch=0;outlineConnect=0;fontColor=#232F3E;gradientColor=none;fillColor=#7AA116;strokeColor=none;dashed=0;verticalLabelPosition=bottom;verticalAlign=top;align=center;html=1;fontSize=12;fontStyle=0;aspect=fixed;pointerEvents=1;shape=mxgraph.aws4.bucket_with_objects;" parent="1" vertex="1">
          <mxGeometry x="1025" y="-144" width="75" height="78" as="geometry" />
        </mxCell>
        <mxCell id="YFh79z24oVCMz1yjFzVP-36" value="AWS Glue Crawler" style="sketch=0;outlineConnect=0;fontColor=#232F3E;gradientColor=none;fillColor=#8C4FFF;strokeColor=none;dashed=0;verticalLabelPosition=bottom;verticalAlign=top;align=center;html=1;fontSize=12;fontStyle=0;aspect=fixed;pointerEvents=1;shape=mxgraph.aws4.glue_crawlers;" parent="1" vertex="1">
          <mxGeometry x="1022" y="132" width="78" height="78" as="geometry" />
        </mxCell>
        <mxCell id="YFh79z24oVCMz1yjFzVP-83" style="edgeStyle=none;rounded=0;orthogonalLoop=1;jettySize=auto;html=1;elbow=vertical;flowAnimation=1;" parent="1" source="YFh79z24oVCMz1yjFzVP-38" target="YFh79z24oVCMz1yjFzVP-86" edge="1">
          <mxGeometry relative="1" as="geometry">
            <mxPoint x="1566" y="36" as="targetPoint" />
          </mxGeometry>
        </mxCell>
        <mxCell id="YFh79z24oVCMz1yjFzVP-38" value="AWS Athena" style="sketch=0;points=[[0,0,0],[0.25,0,0],[0.5,0,0],[0.75,0,0],[1,0,0],[0,1,0],[0.25,1,0],[0.5,1,0],[0.75,1,0],[1,1,0],[0,0.25,0],[0,0.5,0],[0,0.75,0],[1,0.25,0],[1,0.5,0],[1,0.75,0]];outlineConnect=0;fontColor=#232F3E;fillColor=#8C4FFF;strokeColor=#ffffff;dashed=0;verticalLabelPosition=bottom;verticalAlign=top;align=center;html=1;fontSize=12;fontStyle=0;aspect=fixed;shape=mxgraph.aws4.resourceIcon;resIcon=mxgraph.aws4.athena;" parent="1" vertex="1">
          <mxGeometry x="1246" y="-3" width="78" height="78" as="geometry" />
        </mxCell>
        <mxCell id="YFh79z24oVCMz1yjFzVP-40" style="edgeStyle=elbowEdgeStyle;rounded=0;orthogonalLoop=1;jettySize=auto;html=1;entryX=0;entryY=0.5;entryDx=0;entryDy=0;entryPerimeter=0;flowAnimation=1;" parent="1" source="YFh79z24oVCMz1yjFzVP-28" target="YFh79z24oVCMz1yjFzVP-38" edge="1">
          <mxGeometry relative="1" as="geometry" />
        </mxCell>
        <mxCell id="YFh79z24oVCMz1yjFzVP-41" style="edgeStyle=elbowEdgeStyle;rounded=0;orthogonalLoop=1;jettySize=auto;html=1;entryX=0;entryY=0.5;entryDx=0;entryDy=0;entryPerimeter=0;flowAnimation=1;" parent="1" source="YFh79z24oVCMz1yjFzVP-36" target="YFh79z24oVCMz1yjFzVP-38" edge="1">
          <mxGeometry relative="1" as="geometry" />
        </mxCell>
        <mxCell id="YFh79z24oVCMz1yjFzVP-42" value="" style="whiteSpace=wrap;html=1;fillColor=none;dashed=1;dashPattern=1 2;" parent="1" vertex="1">
          <mxGeometry x="702" y="-176" width="258" height="516" as="geometry" />
        </mxCell>
        <mxCell id="YFh79z24oVCMz1yjFzVP-48" value="AWS Cloud" style="sketch=0;outlineConnect=0;fontColor=#232F3E;gradientColor=none;strokeColor=#232F3E;fillColor=#ffffff;dashed=0;verticalLabelPosition=bottom;verticalAlign=top;align=center;html=1;fontSize=12;fontStyle=0;aspect=fixed;shape=mxgraph.aws4.resourceIcon;resIcon=mxgraph.aws4.aws_cloud;" parent="1" vertex="1">
          <mxGeometry x="-80" y="-322" width="62" height="62" as="geometry" />
        </mxCell>
        <mxCell id="YFh79z24oVCMz1yjFzVP-49" value="GitHub&amp;nbsp;" style="verticalLabelPosition=bottom;html=1;verticalAlign=top;align=center;strokeColor=none;fillColor=#00BEF2;shape=mxgraph.azure.github_code;pointerEvents=1;" parent="1" vertex="1">
          <mxGeometry x="-280" y="-38" width="85" height="80" as="geometry" />
        </mxCell>
        <mxCell id="YFh79z24oVCMz1yjFzVP-53" value=".py" style="image;aspect=fixed;html=1;points=[];align=center;fontSize=12;image=img/lib/azure2/general/Files.svg;" parent="1" vertex="1">
          <mxGeometry x="-583" y="-38" width="64" height="70" as="geometry" />
        </mxCell>
        <mxCell id="YFh79z24oVCMz1yjFzVP-54" value=".yaml" style="image;aspect=fixed;html=1;points=[];align=center;fontSize=12;image=img/lib/azure2/general/File.svg;" parent="1" vertex="1">
          <mxGeometry x="-695" y="-39" width="56.00000000000001" height="69" as="geometry" />
        </mxCell>
        <mxCell id="YFh79z24oVCMz1yjFzVP-55" value="" style="rounded=0;whiteSpace=wrap;html=1;fillColor=none;" parent="1" vertex="1">
          <mxGeometry x="-789" y="-124" width="397" height="298" as="geometry" />
        </mxCell>
        <mxCell id="YFh79z24oVCMz1yjFzVP-56" value="CFT" style="sketch=0;points=[[0,0,0],[0.25,0,0],[0.5,0,0],[0.75,0,0],[1,0,0],[0,1,0],[0.25,1,0],[0.5,1,0],[0.75,1,0],[1,1,0],[0,0.25,0],[0,0.5,0],[0,0.75,0],[1,0.25,0],[1,0.5,0],[1,0.75,0]];points=[[0,0,0],[0.25,0,0],[0.5,0,0],[0.75,0,0],[1,0,0],[0,1,0],[0.25,1,0],[0.5,1,0],[0.75,1,0],[1,1,0],[0,0.25,0],[0,0.5,0],[0,0.75,0],[1,0.25,0],[1,0.5,0],[1,0.75,0]];outlineConnect=0;fontColor=#232F3E;fillColor=#E7157B;strokeColor=#ffffff;dashed=0;verticalLabelPosition=bottom;verticalAlign=top;align=center;html=1;fontSize=12;fontStyle=0;aspect=fixed;shape=mxgraph.aws4.resourceIcon;resIcon=mxgraph.aws4.cloudformation;" parent="1" vertex="1">
          <mxGeometry x="-789" y="-124" width="58" height="58" as="geometry" />
        </mxCell>
        <mxCell id="YFh79z24oVCMz1yjFzVP-57" value="" style="shape=image;verticalLabelPosition=bottom;labelBackgroundColor=default;verticalAlign=top;aspect=fixed;imageAspect=0;image=https://alagzoo.com/wp-content/uploads/2023/08/github-actions.png;" parent="1" vertex="1">
          <mxGeometry x="-656" y="268" width="150" height="84.37" as="geometry" />
        </mxCell>
        <mxCell id="YFh79z24oVCMz1yjFzVP-60" style="edgeStyle=elbowEdgeStyle;rounded=0;orthogonalLoop=1;jettySize=auto;html=1;entryX=0;entryY=0.5;entryDx=0;entryDy=0;entryPerimeter=0;flowAnimation=1;" parent="1" source="YFh79z24oVCMz1yjFzVP-57" target="YFh79z24oVCMz1yjFzVP-49" edge="1">
          <mxGeometry relative="1" as="geometry">
            <Array as="points">
              <mxPoint x="-332" y="141" />
            </Array>
          </mxGeometry>
        </mxCell>
        <mxCell id="YFh79z24oVCMz1yjFzVP-61" value="" style="rounded=0;whiteSpace=wrap;html=1;fillColor=none;" parent="1" vertex="1">
          <mxGeometry x="-719" y="-71" width="231" height="154" as="geometry" />
        </mxCell>
        <mxCell id="YFh79z24oVCMz1yjFzVP-63" style="edgeStyle=none;rounded=0;orthogonalLoop=1;jettySize=auto;html=1;entryX=0;entryY=0.5;entryDx=0;entryDy=0;entryPerimeter=0;flowAnimation=1;" parent="1" source="YFh79z24oVCMz1yjFzVP-61" target="YFh79z24oVCMz1yjFzVP-49" edge="1">
          <mxGeometry relative="1" as="geometry" />
        </mxCell>
        <mxCell id="YFh79z24oVCMz1yjFzVP-71" value="" style="endArrow=none;html=1;rounded=0;elbow=vertical;flowAnimation=1;" parent="1" edge="1">
          <mxGeometry width="50" height="50" relative="1" as="geometry">
            <mxPoint x="-689" y="135" as="sourcePoint" />
            <mxPoint x="627" y="132" as="targetPoint" />
          </mxGeometry>
        </mxCell>
        <mxCell id="YFh79z24oVCMz1yjFzVP-75" value="" style="endArrow=none;html=1;rounded=0;elbow=vertical;flowAnimation=1;" parent="1" target="YFh79z24oVCMz1yjFzVP-18" edge="1">
          <mxGeometry width="50" height="50" relative="1" as="geometry">
            <mxPoint x="628" y="133" as="sourcePoint" />
            <mxPoint x="674" y="96" as="targetPoint" />
          </mxGeometry>
        </mxCell>
        <mxCell id="YFh79z24oVCMz1yjFzVP-77" value="" style="endArrow=none;html=1;rounded=0;elbow=vertical;flowAnimation=1;exitX=0.09;exitY=0.989;exitDx=0;exitDy=0;exitPerimeter=0;" parent="1" source="YFh79z24oVCMz1yjFzVP-54" edge="1">
          <mxGeometry width="50" height="50" relative="1" as="geometry">
            <mxPoint x="-689" y="132" as="sourcePoint" />
            <mxPoint x="-690" y="134" as="targetPoint" />
          </mxGeometry>
        </mxCell>
        <mxCell id="YFh79z24oVCMz1yjFzVP-43" value="" style="rounded=0;whiteSpace=wrap;html=1;fillColor=none;" parent="1" vertex="1">
          <mxGeometry x="-90" y="-330" width="1494" height="769" as="geometry" />
        </mxCell>
        <mxCell id="YFh79z24oVCMz1yjFzVP-81" value="" style="shape=image;verticalLabelPosition=bottom;labelBackgroundColor=default;verticalAlign=top;aspect=fixed;imageAspect=0;image=https://seeklogo.com/images/P/power-bi-microsoft-logo-E4FC8DE4A9-seeklogo.com.png;" parent="1" vertex="1">
          <mxGeometry x="1604" y="-12.5" width="203.5" height="97" as="geometry" />
        </mxCell>
        <mxCell id="YFh79z24oVCMz1yjFzVP-86" value="" style="rounded=0;whiteSpace=wrap;html=1;fillColor=none;" parent="1" vertex="1">
          <mxGeometry x="1581" y="-30" width="256" height="132" as="geometry" />
        </mxCell>
        <mxCell id="YFh79z24oVCMz1yjFzVP-89" style="edgeStyle=none;rounded=0;orthogonalLoop=1;jettySize=auto;html=1;exitX=1;exitY=0.5;exitDx=0;exitDy=0;elbow=vertical;" parent="1" source="YFh79z24oVCMz1yjFzVP-43" target="YFh79z24oVCMz1yjFzVP-43" edge="1">
          <mxGeometry relative="1" as="geometry" />
        </mxCell>
        <mxCell id="YFh79z24oVCMz1yjFzVP-91" value="Datalake" style="text;html=1;align=center;verticalAlign=middle;whiteSpace=wrap;rounded=0;" parent="1" vertex="1">
          <mxGeometry x="594" y="-34" width="67" height="35" as="geometry" />
        </mxCell>
        <mxCell id="YFh79z24oVCMz1yjFzVP-92" value="Datawarehouse" style="text;html=1;align=center;verticalAlign=middle;whiteSpace=wrap;rounded=0;" parent="1" vertex="1">
          <mxGeometry x="1025" y="-187" width="67" height="35" as="geometry" />
        </mxCell>
        <mxCell id="YFh79z24oVCMz1yjFzVP-93" value="&lt;b&gt;Data Ingestion&amp;nbsp;&lt;/b&gt;" style="text;html=1;align=center;verticalAlign=middle;whiteSpace=wrap;rounded=0;" parent="1" vertex="1">
          <mxGeometry x="66" y="-241" width="216" height="35" as="geometry" />
        </mxCell>
        <mxCell id="YFh79z24oVCMz1yjFzVP-95" value="Data Transformation&amp;nbsp;" style="text;html=1;align=center;verticalAlign=middle;whiteSpace=wrap;rounded=0;" parent="1" vertex="1">
          <mxGeometry x="715" y="-241" width="216" height="35" as="geometry" />
        </mxCell>
        <mxCell id="YFh79z24oVCMz1yjFzVP-96" style="edgeStyle=none;rounded=0;orthogonalLoop=1;jettySize=auto;html=1;entryX=-0.001;entryY=0.432;entryDx=0;entryDy=0;entryPerimeter=0;elbow=vertical;flowAnimation=1;" parent="1" source="YFh79z24oVCMz1yjFzVP-49" target="YFh79z24oVCMz1yjFzVP-43" edge="1">
          <mxGeometry relative="1" as="geometry" />
        </mxCell>
      </root>
    </mxGraphModel>
  </diagram>
</mxfile>
